<svg width="601" height="601" viewBox="0 0 601 601" fill="none" xmlns="http://www.w3.org/2000/svg">
<circle cx="300.232" cy="300.764" r="300" fill="black"/>
<rect x="130.232" y="459.917" width="340" height="10" rx="5" fill="white"/>
<path d="M236.223 157.11V464.917H195.223V157.11C195.223 145.788 204.401 136.61 215.723 136.61C227.044 136.61 236.223 145.788 236.223 157.11Z" stroke="white" stroke-width="10" stroke-linejoin="round"/>
<path d="M201.238 286.349L285.383 202.622C293.384 194.661 306.356 194.661 314.357 202.622C322.358 210.583 322.358 223.491 314.357 231.452L230.211 315.179C222.211 323.14 209.239 323.14 201.238 315.179C193.237 307.218 193.237 294.31 201.238 286.349Z" stroke="white" stroke-width="10" stroke-linejoin="round"/>
<path d="M315.741 202.622L399.886 286.349C407.887 294.31 407.887 307.217 399.886 315.178C391.886 323.14 378.914 323.14 370.913 315.178L286.767 231.452C278.766 223.491 278.766 210.583 286.767 202.622C294.768 194.661 307.74 194.661 315.741 202.622Z" stroke="white" stroke-width="10" stroke-linejoin="round"/>
<path d="M241.225 300.764C240.837 314.772 229.105 326.127 215.021 326.127C200.938 326.127 189.837 314.772 190.225 300.764C194.925 284.749 211.828 270.041 232.682 253.358C246.765 253.358 237.072 275.31 241.225 300.764Z" fill="white"/>
<path d="M325.737 216.889C325.323 231.821 311.628 241.167 300.611 250.282C290.758 241.517 274.349 230.897 274.737 216.889C275.126 202.882 286.858 191.526 300.941 191.526C315.025 191.526 326.126 202.882 325.737 216.889Z" fill="white"/>
<ellipse cx="25.5" cy="25.3731" rx="25.5" ry="25.3731" transform="matrix(1 0 -0.0277441 0.999615 360.984 275.539)" fill="white"/>
<path d="M347.087 360.684C353.767 359.603 360.208 364.088 361.477 370.697C362.747 377.306 358.365 383.543 351.686 384.624C345.006 385.705 338.565 381.22 337.295 374.611C336.026 368.002 340.407 361.765 347.087 360.684Z" fill="white" stroke="#EFEFEF"/>
</svg>
