<?xml version="1.0" encoding="UTF-8"?>
<svg id="Layer_2" data-name="Layer 2" xmlns="http://www.w3.org/2000/svg" viewBox="0 0 72.53 73.28">
  <defs>
    <style>
      .cls-1 {
        fill: #f15b2b;
      }
    </style>
  </defs>
  <g id="Layer_1-2" data-name="Layer 1">
    <g>
      <path class="cls-1" d="m72.53.74v22.86c0,.66-.8.99-1.27.53l-10.68-10.62L48.03,1.02C47.65.64,47.92,0,48.45,0h23.34c.41,0,.74.33.74.74"/>
      <path class="cls-1" d="m25.11,0c.66,0,.99.8.53,1.27l-12.68,12.73L1.27,25.73c-.47.47-1.27.14-1.27-.52V.74c0-.41.33-.74.74-.74h24.37Z"/>
      <path class="cls-1" d="m72.53,48.21v23.24c0,.66-.8.99-1.27.53l-34.1-33.91c-.29-.29-.76-.29-1.05,0L1.27,73.06C.8,73.53,0,73.2,0,72.53v-22.99c0-.2.08-.38.22-.52l23.87-23.96,12.15-12.2c.29-.29.76-.29,1.05,0l12.03,11.96,22.99,22.86c.14.14.22.33.22.53"/>
    </g>
  </g>
</svg>